# xmcd
#
# Track frame offsets:
#	187
#	21310
#	46325
#	66270
#	89445
#	112255
#	135912
#	155512
#	175492
#	192350
#	215907
#	239245
#
# Disc length: 3560 seconds
#
# Revision: 1
# Processed by: cddbd v1.4PL0 Copyright (c) Steve Scherf et al.
# Submitted via: EasyCDDAExtractor 5.0.7
#
DISCID=ba0de60c
DTITLE=Si Phu - Co Tinh Nao Khong Phai
DYEAR=1900
DGENRE=
TTITLE0=Tu giong hat em
TTITLE1=Nguoi yeu toi khoc
TTITLE2=Va toi cung yeu em
TTITLE3=Tan vo
TTITLE4=Tuong tu 4
TTITLE5=Noi long
TTITLE6=Duong xa uot mua
TTITLE7=Tan tac
TTITLE8=Nguoi em sau mong
TTITLE9=Dem xuan
TTITLE10=Nang Paris nang Saigon
TTITLE11=Tro ve di vang
EXTD=
EXTT0=
EXTT1=
EXTT2=
EXTT3=
EXTT4=
EXTT5=
EXTT6=
EXTT7=
EXTT8=
EXTT9=
EXTT10=
EXTT11=
PLAYORDER=
